<svg width="282" height="75" viewBox="0 0 282 75" fill="none" xmlns="http://www.w3.org/2000/svg">
<path d="M134.016 30.0841C134.016 48.3425 106.366 63.1439 72.257 63.1439C38.1485 63.1439 0 53.3017 0 35.0433C205.04 142.157 138.816 0 172.924 0C207.033 0 134.016 11.8257 134.016 30.0841Z" fill="#A584C5"/>
<path d="M38.5078 43.8125C38.5078 43.1484 38.4297 42.5625 38.2734 42.0547C38.1172 41.5339 37.8438 41.0651 37.4531 40.6484C37.0625 40.2318 36.5156 39.8346 35.8125 39.457C35.1094 39.0794 34.2174 38.6953 33.1367 38.3047C31.9648 37.888 30.9036 37.4258 29.9531 36.918C29.0026 36.3971 28.1888 35.8047 27.5117 35.1406C26.8477 34.4766 26.3333 33.7148 25.9688 32.8555C25.6042 31.9961 25.4219 31.013 25.4219 29.9062C25.4219 28.7995 25.6107 27.7773 25.9883 26.8398C26.3789 25.9023 26.9258 25.0885 27.6289 24.3984C28.3451 23.6953 29.2044 23.1484 30.207 22.7578C31.2096 22.3672 32.3294 22.1719 33.5664 22.1719C35.4154 22.1719 36.9714 22.582 38.2344 23.4023C39.5104 24.2096 40.474 25.2708 41.125 26.5859C41.776 27.888 42.1016 29.2812 42.1016 30.7656H38.5078C38.5078 29.6979 38.332 28.7539 37.9805 27.9336C37.6419 27.1003 37.1081 26.4492 36.3789 25.9805C35.6628 25.4987 34.7253 25.2578 33.5664 25.2578C32.5247 25.2578 31.6654 25.4596 30.9883 25.8633C30.3242 26.2669 29.8294 26.8138 29.5039 27.5039C29.1914 28.194 29.0352 28.9818 29.0352 29.8672C29.0352 30.4661 29.1393 31.013 29.3477 31.5078C29.556 31.9896 29.875 32.4388 30.3047 32.8555C30.7474 33.2721 31.2943 33.6562 31.9453 34.0078C32.6094 34.3594 33.3906 34.6979 34.2891 35.0234C35.6823 35.4792 36.8737 35.987 37.8633 36.5469C38.8529 37.1068 39.6602 37.7383 40.2852 38.4414C40.9102 39.1315 41.3659 39.9193 41.6523 40.8047C41.9518 41.6771 42.1016 42.6667 42.1016 43.7734C42.1016 44.9323 41.9062 45.9805 41.5156 46.918C41.138 47.8555 40.5846 48.6562 39.8555 49.3203C39.1263 49.9844 38.2474 50.4987 37.2188 50.8633C36.1901 51.2148 35.0312 51.3906 33.7422 51.3906C32.6224 51.3906 31.5221 51.2083 30.4414 50.8438C29.3737 50.4792 28.4036 49.9323 27.5312 49.2031C26.6589 48.474 25.9622 47.5755 25.4414 46.5078C24.9206 45.4271 24.6602 44.1771 24.6602 42.7578H28.2539C28.2539 43.7344 28.3971 44.5742 28.6836 45.2773C28.9701 45.9674 29.3672 46.5404 29.875 46.9961C30.3828 47.4518 30.9622 47.7904 31.6133 48.0117C32.2773 48.2201 32.987 48.3242 33.7422 48.3242C34.7839 48.3242 35.6562 48.1419 36.3594 47.7773C37.0755 47.4128 37.6094 46.8919 37.9609 46.2148C38.3255 45.5378 38.5078 44.737 38.5078 43.8125ZM53.6641 48.4414C54.3542 48.4414 54.9792 48.3047 55.5391 48.0312C56.112 47.7448 56.5807 47.3021 56.9453 46.7031C57.3099 46.0911 57.5182 45.2969 57.5703 44.3203H60.8125C60.7604 45.7266 60.4023 46.9635 59.7383 48.0312C59.0872 49.0859 58.2279 49.9128 57.1602 50.5117C56.1055 51.0977 54.9401 51.3906 53.6641 51.3906C52.2969 51.3906 51.1055 51.1693 50.0898 50.7266C49.0872 50.2839 48.2539 49.6458 47.5898 48.8125C46.9388 47.9661 46.4505 46.944 46.125 45.7461C45.7995 44.5352 45.6367 43.1615 45.6367 41.625V39.2422C45.6367 37.7057 45.7995 36.3385 46.125 35.1406C46.4505 33.9297 46.9388 32.9076 47.5898 32.0742C48.2539 31.2279 49.0872 30.5833 50.0898 30.1406C51.1055 29.6979 52.2969 29.4766 53.6641 29.4766C55.0964 29.4766 56.3333 29.7826 57.375 30.3945C58.4297 30.9935 59.25 31.8659 59.8359 33.0117C60.4349 34.1445 60.7604 35.5182 60.8125 37.1328H57.5703C57.5182 36.0911 57.3294 35.2253 57.0039 34.5352C56.6784 33.832 56.2357 33.3112 55.6758 32.9727C55.1159 32.6211 54.4453 32.4453 53.6641 32.4453C52.7526 32.4453 51.9974 32.6081 51.3984 32.9336C50.8125 33.2461 50.3503 33.7018 50.0117 34.3008C49.6732 34.8997 49.4323 35.6159 49.2891 36.4492C49.1589 37.2826 49.0938 38.2135 49.0938 39.2422V41.625C49.0938 42.6536 49.1589 43.5911 49.2891 44.4375C49.4323 45.2708 49.6667 45.987 49.9922 46.5859C50.3307 47.1849 50.7995 47.6471 51.3984 47.9727C51.9974 48.2852 52.7526 48.4414 53.6641 48.4414ZM68.2734 33.1875V51H64.8164V29.8672H68.1562L68.2734 33.1875ZM73.5273 29.75L73.5469 33.1094C73.2604 33.0443 73 33.0052 72.7656 32.9922C72.5443 32.9661 72.2839 32.9531 71.9844 32.9531C71.3333 32.9531 70.7604 33.0833 70.2656 33.3438C69.7839 33.6042 69.3672 33.9688 69.0156 34.4375C68.6641 34.9062 68.3841 35.4661 68.1758 36.1172C67.9674 36.7552 67.8242 37.4583 67.7461 38.2266L66.8477 38.8125C66.8477 37.5365 66.9453 36.3385 67.1406 35.2188C67.349 34.099 67.668 33.1094 68.0977 32.25C68.5273 31.3776 69.0742 30.7005 69.7383 30.2188C70.4154 29.724 71.2227 29.4766 72.1602 29.4766C72.3685 29.4766 72.6224 29.5091 72.9219 29.5742C73.2344 29.6263 73.4362 29.6849 73.5273 29.75ZM75.8906 41.4492V39.4375C75.8906 37.7969 76.099 36.3581 76.5156 35.1211C76.9323 33.8711 77.5117 32.8294 78.2539 31.9961C78.9961 31.1628 79.862 30.5378 80.8516 30.1211C81.8411 29.6914 82.9023 29.4766 84.0352 29.4766C85.194 29.4766 86.2682 29.6914 87.2578 30.1211C88.2474 30.5378 89.1133 31.1628 89.8555 31.9961C90.6107 32.8294 91.1966 33.8711 91.6133 35.1211C92.0299 36.3581 92.2383 37.7969 92.2383 39.4375V41.4492C92.2383 43.0898 92.0299 44.5352 91.6133 45.7852C91.1966 47.0221 90.6172 48.0573 89.875 48.8906C89.1328 49.724 88.2669 50.349 87.2773 50.7656C86.2878 51.1823 85.2201 51.3906 84.0742 51.3906C82.9284 51.3906 81.8607 51.1823 80.8711 50.7656C79.8815 50.349 79.0091 49.724 78.2539 48.8906C77.5117 48.0573 76.9323 47.0221 76.5156 45.7852C76.099 44.5352 75.8906 43.0898 75.8906 41.4492ZM79.3477 39.4375V41.4492C79.3477 42.6081 79.4648 43.6237 79.6992 44.4961C79.9336 45.3685 80.2656 46.0977 80.6953 46.6836C81.125 47.2695 81.6263 47.7122 82.1992 48.0117C82.7721 48.2982 83.3971 48.4414 84.0742 48.4414C84.8555 48.4414 85.5391 48.2982 86.125 48.0117C86.724 47.7122 87.2188 47.2695 87.6094 46.6836C88 46.0977 88.293 45.3685 88.4883 44.4961C88.6836 43.6237 88.7812 42.6081 88.7812 41.4492V39.4375C88.7812 38.2786 88.6641 37.2695 88.4297 36.4102C88.1953 35.5378 87.8633 34.8086 87.4336 34.2227C87.0039 33.6237 86.4961 33.181 85.9102 32.8945C85.3372 32.5951 84.7122 32.4453 84.0352 32.4453C83.3711 32.4453 82.7526 32.5951 82.1797 32.8945C81.6068 33.181 81.1055 33.6237 80.6758 34.2227C80.2591 34.8086 79.9336 35.5378 79.6992 36.4102C79.4648 37.2695 79.3477 38.2786 79.3477 39.4375ZM100.402 21V51H96.9648V21H100.402ZM109.582 21V51H106.145V21H109.582ZM133.059 22.5625V51H129.504V22.5625H133.059ZM140.539 22.5625V25.6484H122.043V22.5625H140.539ZM146.242 33.1875V51H142.785V29.8672H146.125L146.242 33.1875ZM151.496 29.75L151.516 33.1094C151.229 33.0443 150.969 33.0052 150.734 32.9922C150.513 32.9661 150.253 32.9531 149.953 32.9531C149.302 32.9531 148.729 33.0833 148.234 33.3438C147.753 33.6042 147.336 33.9688 146.984 34.4375C146.633 34.9062 146.353 35.4661 146.145 36.1172C145.936 36.7552 145.793 37.4583 145.715 38.2266L144.816 38.8125C144.816 37.5365 144.914 36.3385 145.109 35.2188C145.318 34.099 145.637 33.1094 146.066 32.25C146.496 31.3776 147.043 30.7005 147.707 30.2188C148.384 29.724 149.191 29.4766 150.129 29.4766C150.337 29.4766 150.591 29.5091 150.891 29.5742C151.203 29.6263 151.405 29.6849 151.496 29.75ZM164.543 47.3867V35.9219C164.543 35.0885 164.413 34.418 164.152 33.9102C163.905 33.4023 163.527 33.0312 163.02 32.7969C162.525 32.5625 161.9 32.4453 161.145 32.4453C160.415 32.4453 159.784 32.5951 159.25 32.8945C158.729 33.194 158.326 33.5911 158.039 34.0859C157.766 34.5807 157.629 35.1276 157.629 35.7266H154.172C154.172 34.9714 154.335 34.2227 154.66 33.4805C154.999 32.7383 155.48 32.0677 156.105 31.4688C156.73 30.8568 157.479 30.375 158.352 30.0234C159.237 29.6589 160.227 29.4766 161.32 29.4766C162.622 29.4766 163.775 29.6914 164.777 30.1211C165.78 30.5378 166.568 31.2214 167.141 32.1719C167.714 33.1224 168 34.3854 168 35.9609V46.3906C168 47.0938 168.052 47.8424 168.156 48.6367C168.273 49.431 168.436 50.1146 168.645 50.6875V51H165.07C164.901 50.5833 164.771 50.0299 164.68 49.3398C164.589 48.6367 164.543 47.9857 164.543 47.3867ZM165.09 38.1875L165.129 40.7266H162.727C161.906 40.7266 161.158 40.8177 160.48 41C159.816 41.1823 159.243 41.4492 158.762 41.8008C158.28 42.1393 157.909 42.5625 157.648 43.0703C157.401 43.5781 157.277 44.1576 157.277 44.8086C157.277 45.6549 157.395 46.332 157.629 46.8398C157.863 47.3346 158.215 47.6927 158.684 47.9141C159.152 48.1354 159.745 48.2461 160.461 48.2461C161.333 48.2461 162.102 48.0443 162.766 47.6406C163.43 47.237 163.944 46.7487 164.309 46.1758C164.686 45.6029 164.862 45.069 164.836 44.5742L165.598 46.1953C165.546 46.7031 165.376 47.2565 165.09 47.8555C164.816 48.4414 164.432 49.0078 163.938 49.5547C163.443 50.0885 162.857 50.5312 162.18 50.8828C161.516 51.2214 160.767 51.3906 159.934 51.3906C158.71 51.3906 157.635 51.1562 156.711 50.6875C155.799 50.2188 155.09 49.5286 154.582 48.6172C154.074 47.7057 153.82 46.5794 153.82 45.2383C153.82 44.2227 153.996 43.2852 154.348 42.4258C154.699 41.5664 155.22 40.8242 155.91 40.1992C156.6 39.5612 157.466 39.0664 158.508 38.7148C159.562 38.3633 160.78 38.1875 162.16 38.1875H165.09ZM176.828 34.3789V51H173.371V29.8672H176.633L176.828 34.3789ZM175.988 39.6328L174.582 39.5742C174.569 38.1289 174.732 36.7943 175.07 35.5703C175.422 34.3333 175.917 33.2591 176.555 32.3477C177.206 31.4362 177.98 30.7331 178.879 30.2383C179.777 29.7305 180.773 29.4766 181.867 29.4766C182.727 29.4766 183.508 29.6198 184.211 29.9062C184.914 30.1797 185.513 30.6224 186.008 31.2344C186.503 31.8464 186.88 32.6406 187.141 33.6172C187.414 34.5807 187.551 35.7591 187.551 37.1523V51H184.094V37.1133C184.094 36.0065 183.97 35.1211 183.723 34.457C183.488 33.7799 183.124 33.2917 182.629 32.9922C182.147 32.6797 181.535 32.5234 180.793 32.5234C180.116 32.5234 179.484 32.7122 178.898 33.0898C178.312 33.4674 177.798 33.9883 177.355 34.6523C176.926 35.3164 176.587 36.0781 176.34 36.9375C176.105 37.7839 175.988 38.6823 175.988 39.6328ZM203 45.5898C203 45.056 202.87 44.5872 202.609 44.1836C202.349 43.7799 201.919 43.3893 201.32 43.0117C200.734 42.6341 199.94 42.2305 198.938 41.8008C197.961 41.3971 197.082 41 196.301 40.6094C195.533 40.2057 194.882 39.7695 194.348 39.3008C193.814 38.832 193.404 38.2917 193.117 37.6797C192.844 37.0547 192.707 36.319 192.707 35.4727C192.707 34.6263 192.863 33.8451 193.176 33.1289C193.501 32.3997 193.957 31.7617 194.543 31.2148C195.129 30.668 195.832 30.2448 196.652 29.9453C197.473 29.6328 198.391 29.4766 199.406 29.4766C200.852 29.4766 202.082 29.7565 203.098 30.3164C204.113 30.8763 204.888 31.6445 205.422 32.6211C205.969 33.5846 206.242 34.6719 206.242 35.8828H202.805C202.805 35.2969 202.674 34.7435 202.414 34.2227C202.154 33.7018 201.77 33.2786 201.262 32.9531C200.754 32.6146 200.135 32.4453 199.406 32.4453C198.638 32.4453 198.013 32.582 197.531 32.8555C197.049 33.1289 196.698 33.487 196.477 33.9297C196.268 34.3594 196.164 34.8346 196.164 35.3555C196.164 35.7461 196.216 36.0846 196.32 36.3711C196.438 36.6445 196.633 36.9049 196.906 37.1523C197.18 37.3867 197.551 37.6341 198.02 37.8945C198.501 38.1419 199.113 38.4284 199.855 38.7539C201.288 39.3138 202.492 39.8802 203.469 40.4531C204.445 41.026 205.188 41.6966 205.695 42.4648C206.203 43.2331 206.457 44.1836 206.457 45.3164C206.457 46.2409 206.288 47.0807 205.949 47.8359C205.624 48.5781 205.155 49.2161 204.543 49.75C203.931 50.2839 203.195 50.694 202.336 50.9805C201.49 51.2539 200.539 51.3906 199.484 51.3906C197.896 51.3906 196.548 51.0781 195.441 50.4531C194.348 49.8151 193.514 48.9883 192.941 47.9727C192.382 46.944 192.102 45.8438 192.102 44.6719H195.559C195.598 45.6615 195.819 46.4297 196.223 46.9766C196.639 47.5234 197.141 47.901 197.727 48.1094C198.312 48.3177 198.898 48.4219 199.484 48.4219C200.253 48.4219 200.897 48.3112 201.418 48.0898C201.939 47.8555 202.329 47.5234 202.59 47.0938C202.863 46.6641 203 46.1628 203 45.5898ZM214.699 29.8672V51H211.262V29.8672H214.699ZM211.066 24.2617C211.066 23.6758 211.229 23.181 211.555 22.7773C211.88 22.3737 212.368 22.1719 213.02 22.1719C213.671 22.1719 214.159 22.3737 214.484 22.7773C214.823 23.181 214.992 23.6758 214.992 24.2617C214.992 24.8216 214.823 25.3034 214.484 25.707C214.159 26.0977 213.671 26.293 213.02 26.293C212.368 26.293 211.88 26.0977 211.555 25.707C211.229 25.3034 211.066 24.8216 211.066 24.2617ZM227.883 29.8672V32.6406H218.02V29.8672H227.883ZM221.242 24.7305H224.699V45.7656C224.699 46.4818 224.784 47.0221 224.953 47.3867C225.135 47.7513 225.363 47.9922 225.637 48.1094C225.91 48.2266 226.203 48.2852 226.516 48.2852C226.75 48.2852 227.01 48.2591 227.297 48.207C227.583 48.1419 227.779 48.0898 227.883 48.0508L227.863 51C227.629 51.0911 227.316 51.1758 226.926 51.2539C226.535 51.3451 226.04 51.3906 225.441 51.3906C224.699 51.3906 224.009 51.2148 223.371 50.8633C222.733 50.5117 222.219 49.9258 221.828 49.1055C221.438 48.2721 221.242 47.1523 221.242 45.7461V24.7305ZM235.715 29.8672V51H232.277V29.8672H235.715ZM232.082 24.2617C232.082 23.6758 232.245 23.181 232.57 22.7773C232.896 22.3737 233.384 22.1719 234.035 22.1719C234.686 22.1719 235.174 22.3737 235.5 22.7773C235.839 23.181 236.008 23.6758 236.008 24.2617C236.008 24.8216 235.839 25.3034 235.5 25.707C235.174 26.0977 234.686 26.293 234.035 26.293C233.384 26.293 232.896 26.0977 232.57 25.707C232.245 25.3034 232.082 24.8216 232.082 24.2617ZM240.461 41.4492V39.4375C240.461 37.7969 240.669 36.3581 241.086 35.1211C241.503 33.8711 242.082 32.8294 242.824 31.9961C243.566 31.1628 244.432 30.5378 245.422 30.1211C246.411 29.6914 247.473 29.4766 248.605 29.4766C249.764 29.4766 250.839 29.6914 251.828 30.1211C252.818 30.5378 253.684 31.1628 254.426 31.9961C255.181 32.8294 255.767 33.8711 256.184 35.1211C256.6 36.3581 256.809 37.7969 256.809 39.4375V41.4492C256.809 43.0898 256.6 44.5352 256.184 45.7852C255.767 47.0221 255.188 48.0573 254.445 48.8906C253.703 49.724 252.837 50.349 251.848 50.7656C250.858 51.1823 249.79 51.3906 248.645 51.3906C247.499 51.3906 246.431 51.1823 245.441 50.7656C244.452 50.349 243.579 49.724 242.824 48.8906C242.082 48.0573 241.503 47.0221 241.086 45.7852C240.669 44.5352 240.461 43.0898 240.461 41.4492ZM243.918 39.4375V41.4492C243.918 42.6081 244.035 43.6237 244.27 44.4961C244.504 45.3685 244.836 46.0977 245.266 46.6836C245.695 47.2695 246.197 47.7122 246.77 48.0117C247.342 48.2982 247.967 48.4414 248.645 48.4414C249.426 48.4414 250.109 48.2982 250.695 48.0117C251.294 47.7122 251.789 47.2695 252.18 46.6836C252.57 46.0977 252.863 45.3685 253.059 44.4961C253.254 43.6237 253.352 42.6081 253.352 41.4492V39.4375C253.352 38.2786 253.234 37.2695 253 36.4102C252.766 35.5378 252.434 34.8086 252.004 34.2227C251.574 33.6237 251.066 33.181 250.48 32.8945C249.908 32.5951 249.283 32.4453 248.605 32.4453C247.941 32.4453 247.323 32.5951 246.75 32.8945C246.177 33.181 245.676 33.6237 245.246 34.2227C244.829 34.8086 244.504 35.5378 244.27 36.4102C244.035 37.2695 243.918 38.2786 243.918 39.4375ZM264.719 34.3789V51H261.262V29.8672H264.523L264.719 34.3789ZM263.879 39.6328L262.473 39.5742C262.46 38.1289 262.622 36.7943 262.961 35.5703C263.312 34.3333 263.807 33.2591 264.445 32.3477C265.096 31.4362 265.871 30.7331 266.77 30.2383C267.668 29.7305 268.664 29.4766 269.758 29.4766C270.617 29.4766 271.398 29.6198 272.102 29.9062C272.805 30.1797 273.404 30.6224 273.898 31.2344C274.393 31.8464 274.771 32.6406 275.031 33.6172C275.305 34.5807 275.441 35.7591 275.441 37.1523V51H271.984V37.1133C271.984 36.0065 271.861 35.1211 271.613 34.457C271.379 33.7799 271.014 33.2917 270.52 32.9922C270.038 32.6797 269.426 32.5234 268.684 32.5234C268.007 32.5234 267.375 32.7122 266.789 33.0898C266.203 33.4674 265.689 33.9883 265.246 34.6523C264.816 35.3164 264.478 36.0781 264.23 36.9375C263.996 37.7839 263.879 38.6823 263.879 39.6328Z" fill="white"/>
</svg>
